<svg id="OBJECTS" xmlns="http://www.w3.org/2000/svg" viewBox="0 0 343.98 285.84"><defs><style>.cls-1{fill:#aee4ed;}.cls-2{fill:#30c5cc;}.cls-3{fill:#3d9cff;}.cls-4{fill:#0b9b9b;}.cls-5{fill:#c6f4ff;}.cls-6{fill:#db5a28;}.cls-7{fill:#2f2f8e;}.cls-8{fill:#4c49a2;}.cls-9{fill:#fff;}.cls-10{fill:#e67750;}.cls-11{fill:#efefef;}.cls-12{fill:#fd9e71;}.cls-13{fill:#201251;}.cls-14{fill:#31d0a8;}.cls-15{fill:#feba40;}.cls-16{fill:#fedb9b;}.cls-17{fill:#4cb0dd;}.cls-18{fill:#75d5ef;}.cls-19{fill:#fdbe44;}.cls-20{fill:#98dbe5;}.cls-21{fill:#86d2e8;}.cls-22{fill:#f6fffa;}.cls-23{fill:#ffe780;}.cls-24{fill:#1fb288;}.cls-25{fill:#9e472d;}.cls-26{fill:#262845;}.cls-27{fill:#6aa5cc;}.cls-28{fill:#96c4ea;}.cls-29{fill:#1a133a;}.cls-30{fill:#e79673;}</style></defs><title>2638zc286</title><path class="cls-1" d="M453.3,405.11c0,3.31-20.32,6-45.39,6s-45.4-2.68-45.4-6,20.33-6,45.4-6S453.3,401.81,453.3,405.11Z" transform="translate(-314.83 -125.26)"/><ellipse class="cls-1" cx="298.09" cy="272.37" rx="45.89" ry="4.49"/><polygon class="cls-2" points="14.18 221.61 8.78 221.61 8.78 216.21 5.4 216.21 5.4 221.61 0 221.61 0 224.98 5.4 224.98 5.4 230.38 8.78 230.38 8.78 224.98 14.18 224.98 14.18 221.61"/><path class="cls-3" d="M333.93,336.93a3.34,3.34,0,1,1-3.34-3.34A3.34,3.34,0,0,1,333.93,336.93Z" transform="translate(-314.83 -125.26)"/><rect class="cls-2" x="25.29" y="21.47" width="291.22" height="233.44" rx="18.48"/><rect class="cls-4" x="377.33" y="126.64" width="216.82" height="273.62" rx="12.01" transform="translate(434.36 -347.55) rotate(90)"/><rect class="cls-5" x="41.27" y="36.05" width="259.28" height="204.28" rx="7.76"/><path class="cls-4" d="M322.64,365.14a33.32,33.32,0,0,0,28.46,16.1H620.37a33.32,33.32,0,0,0,28.46-16.1Z" transform="translate(-314.83 -125.26)"/><path class="cls-2" d="M326.12,369.87H645.35a33.68,33.68,0,0,0,3.48-4.73H322.64A33.68,33.68,0,0,0,326.12,369.87Z" transform="translate(-314.83 -125.26)"/><rect class="cls-6" x="61.65" y="157.48" width="72.49" height="40.57"/><rect class="cls-2" x="132.56" y="53.62" width="27.27" height="3.76"/><rect class="cls-2" x="97.3" y="53.62" width="16.65" height="3.76"/><rect class="cls-2" x="59.28" y="53.62" width="32.98" height="3.76"/><rect class="cls-2" x="119.16" y="53.62" width="7.15" height="3.76"/><rect class="cls-2" x="166.77" y="53.62" width="16.59" height="3.76"/><rect class="cls-2" x="132.56" y="64.6" width="10.23" height="3.76"/><rect class="cls-2" x="146.86" y="64.6" width="10.23" height="3.76"/><rect class="cls-2" x="80.34" y="64.6" width="16.65" height="3.76"/><rect class="cls-2" x="59.28" y="64.6" width="16.33" height="3.76"/><rect class="cls-2" x="101.55" y="64.6" width="27.42" height="3.76"/><path class="cls-7" d="M422.2,398.22c-1.72-5.53-5.07-28.94-5.81-38.11-.16-1.94-21.49-10.27-21.49-10.27-12.49-.32-18.92,4.58-18.92,4.58l30,10.12c0,13.53,11.52,33.92,11.52,33.92Z" transform="translate(-314.83 -125.26)"/><path class="cls-8" d="M396.48,367.23l-8.9,31,5.08,1.11C394.88,392,407.7,367,408,364c.15-1.28.06-2.26-.41-2.65s-14.85-9-19-9.93c-5.59-1.26-13.89-3.27-13.89-3.27A16.76,16.76,0,0,0,370.94,361C371.85,369,396.48,367.23,396.48,367.23Z" transform="translate(-314.83 -125.26)"/><path class="cls-9" d="M384.47,312.7s-9.76.87-10.21,3.53,4.66,19.49,4.66,19.49L374,349s14.08,3.46,20.94.88c.65.29,1.76-13.89,1.76-13.89l2.44-7,3.1,10.51,7.09,10L414,345.7l-5.17-9.09s-8-18.26-10.13-20.38C394.66,312.24,384.47,312.7,384.47,312.7Z" transform="translate(-314.83 -125.26)"/><path class="cls-10" d="M392.2,313.4l-.75-10h-7.32v9.37c-.93.11,1,7.59,6.89,7.59C391,320.33,393.77,319.33,392.2,313.4Z" transform="translate(-314.83 -125.26)"/><path class="cls-11" d="M377.37,330.41c.86,3,1.55,5.31,1.55,5.31L374,349s10.71,2.63,18,1.59c-.65-.48-9.29-6.3-9.71-8.84C381.36,336.39,377.37,330.41,377.37,330.41Z" transform="translate(-314.83 -125.26)"/><path class="cls-12" d="M398.72,293.24c-.62-2.57-4.63-3.32-11-2.57-4.3.51-5.27,4.47-5.39,7.42l-.2,0a3.5,3.5,0,0,0-2.46,3.48,3.39,3.39,0,0,0,.85,2.13,3.6,3.6,0,0,0,2.61,1.67,3.87,3.87,0,0,0,.9,0c1.79,3.73,5.08,8.38,9.7,7.83C400.53,308.49,398.72,293.24,398.72,293.24Z" transform="translate(-314.83 -125.26)"/><path class="cls-13" d="M384.21,300a4.91,4.91,0,0,1,1.76-5.73c3.15-2.37,3.37,1.13,6.69,1.56s6.62.16,6.26,2.36c2-5-.9-7.81-4.15-9.37s-8.36-2.23-11.9.73-3.06,10.05-3.06,10.05C382.14,298.47,382.77,299.39,384.21,300Z" transform="translate(-314.83 -125.26)"/><path class="cls-13" d="M382.87,289.55s-2.94-7.9-8.51-5.95-3.06,13.18-3.67,18.07-4.12,5.1-5.37,2.93c-2.33,4.42,6.79,8.92,9.76,4.67s1.26-15,3.16-16.14a3.69,3.69,0,0,1,3.81.33Z" transform="translate(-314.83 -125.26)"/><path class="cls-9" d="M374.49,315.34c-2.35,1.35-6.66,17.5-6.66,20.16s20.77,15.91,20.77,15.91,1-3.27,3.18-3.94c-.45-.22-15.52-14.63-15.52-14.63l4-11.29S380.25,312,374.49,315.34Z" transform="translate(-314.83 -125.26)"/><polygon class="cls-2" points="72.18 228.18 93.35 227.53 107.1 232.63 83.83 233.87 72.18 228.18"/><polygon class="cls-4" points="83.83 233.87 72.18 229.35 72.18 228.18 84.75 232.71 83.83 233.87"/><polygon class="cls-4" points="83.83 233.87 90.83 214.76 113.97 216 107.1 233.07 83.83 233.87"/><path class="cls-2" d="M412.87,348.48c-.68,1.37-.48,2.87.47,3.34s2.27-.26,3-1.63.48-2.88-.47-3.35S413.56,347.1,412.87,348.48Z" transform="translate(-314.83 -125.26)"/><path class="cls-12" d="M391.78,347.47s8.42,6.66,7.54,7.1a10.51,10.51,0,0,1-6.66-.67c-2-1.1-4.06-2.49-4.06-2.49S389.34,347.7,391.78,347.47Z" transform="translate(-314.83 -125.26)"/><path class="cls-13" d="M392.89,397.8c1.49,1.51,6.58,3.81,9.09,4.43,2.68.67,2.21,2.92.25,2.92-3.86,0-12.43-.48-16.66-.48-.66-2,.48-4.66,1.83-6.46C387.81,397.66,392.67,397.58,392.89,397.8Z" transform="translate(-314.83 -125.26)"/><path class="cls-13" d="M423.26,397.8c1.49,1.51,6.58,3.81,9.09,4.43,2.69.67,2.21,2.92.25,2.92-3.85,0-12.43-.48-16.66-.48-.66-2,.48-4.66,1.83-6.46C418.18,397.66,423,397.58,423.26,397.8Z" transform="translate(-314.83 -125.26)"/><rect class="cls-14" x="62.04" y="141.71" width="20.33" height="5.6"/><rect class="cls-14" x="113.81" y="141.71" width="20.33" height="5.6"/><rect class="cls-14" x="87.93" y="141.71" width="20.33" height="5.6"/><rect class="cls-15" x="447.16" y="166.47" width="66.33" height="24.71" transform="translate(-343.6 -5.74) rotate(-13.78)"/><rect class="cls-16" x="449.08" y="171.28" width="48.85" height="3.42" transform="translate(-342.4 -7.53) rotate(-13.78)"/><rect class="cls-16" x="450.64" y="178.13" width="40.82" height="3.42" transform="translate(-344.11 -7.91) rotate(-13.78)"/><rect class="cls-16" x="452.53" y="187.15" width="19.37" height="3.42" transform="translate(-346.51 -9.76) rotate(-13.78)"/><rect class="cls-9" x="492.7" y="171.64" width="10.37" height="3.41" transform="translate(-341.79 -1.71) rotate(-13.78)"/><rect class="cls-9" x="61.28" y="76.49" width="72.35" height="59.04"/><rect class="cls-17" x="139.04" y="110.54" width="142.28" height="26.62"/><rect class="cls-9" x="238.56" y="114.4" width="38.5" height="18.92"/><rect class="cls-18" x="144.24" y="115.55" width="89" height="3.65"/><rect class="cls-18" x="144.24" y="122.03" width="89" height="3.65"/><rect class="cls-18" x="144.24" y="128.52" width="59.92" height="3.65"/><rect class="cls-9" x="139.07" y="156.19" width="136.73" height="64.15"/><rect class="cls-19" x="139.07" y="156.19" width="136.73" height="10.64"/><rect class="cls-20" x="142.39" y="181.95" width="78.95" height="5.41"/><rect class="cls-20" x="142.39" y="191.58" width="70.8" height="5.42"/><rect class="cls-20" x="142.39" y="201.2" width="47.75" height="5.42"/><rect class="cls-20" x="142.39" y="173.08" width="28.46" height="5.42"/><rect class="cls-21" x="229.03" y="172.82" width="41.3" height="41.3"/><path class="cls-22" d="M568.74,318.46a5.31,5.31,0,0,0,1-3.13v-3.15a5.26,5.26,0,0,0-10.52,0v3.15a5.21,5.21,0,0,0,1.14,3.26,12.42,12.42,0,0,0-8.28,11.71h26S577.11,320.89,568.74,318.46Z" transform="translate(-314.83 -125.26)"/><circle class="cls-6" cx="146.14" cy="161.77" r="2.68"/><circle class="cls-23" cx="154.74" cy="161.77" r="2.68"/><circle class="cls-24" cx="164.71" cy="161.77" r="2.68"/><rect class="cls-6" x="229.25" y="51.06" width="47.89" height="47.89"/><path class="cls-25" d="M611.13,389.05s.41,1.26-3.45,3-7.94,1.14-8.94,2.62a8.2,8.2,0,0,0-1.24,2.89h22s-.16-6.07-2.65-8.77C617.14,389.39,611.13,389.05,611.13,389.05Z" transform="translate(-314.83 -125.26)"/><path class="cls-25" d="M635.07,389s.39,1.21-3.32,2.91-7.64,1.09-8.6,2.52a7.71,7.71,0,0,0-1.18,2.77H643.1s-.16-5.84-2.56-8.43C640.85,389.37,635.07,389,635.07,389Z" transform="translate(-314.83 -125.26)"/><polygon class="cls-9" points="291.97 148.21 276.01 151.02 264.79 127 281.97 125.59 291.97 148.21"/><path class="cls-26" d="M586.87,271.05h0C586.83,271.07,586.82,271.07,586.87,271.05Z" transform="translate(-314.83 -125.26)"/><path class="cls-12" d="M617.85,228.41a21.3,21.3,0,0,0-2.11,8.07c0,2.69.34,6.59.55,8.69a1.21,1.21,0,0,0,1.56,1l3.15-1-.17,4.56,8.78-.15,1.91-18.43S624.16,223.15,617.85,228.41Z" transform="translate(-314.83 -125.26)"/><path class="cls-13" d="M618.51,238.09s.49-3.65,3.25-2.9-.41,4.44-.41,4.44l2.63,4.74a8,8,0,0,0,6.14-.18S633,235.31,633,232.5s-2.55-4.7-2.55-4.7-6.86-3.42-10.54-3.25a4.28,4.28,0,0,0-4,3.86s-1.41,2.81,0,4S618.51,238.09,618.51,238.09Z" transform="translate(-314.83 -125.26)"/><path class="cls-27" d="M630,247.12l-.39,2.53-9.08,0S622.29,246.88,630,247.12Z" transform="translate(-314.83 -125.26)"/><path class="cls-12" d="M591.19,269.8s.64-2-1.93-3.16a7.3,7.3,0,0,0-1-3.33c-.54-.54-.88,2.45-.88,2.45s-2.51-4.47-3.15-3.33,5.67,9.94,5.84,10.29S591.19,269.8,591.19,269.8Z" transform="translate(-314.83 -125.26)"/><path class="cls-13" d="M614.81,298.67l-6.08,51.44L610,390l7.65-.55s2.16-21,2.34-26.23-1.4-13.33-1.4-13.33l7.71-31.8,1.29.23.35,31.33,7,39.8,6.43.31s.16-20.52-.37-25.61-3.27-15.26-3.27-15.26l2.81-32.44a25,25,0,0,0-2.23-18.12C637.66,298.38,614.81,298.67,614.81,298.67Z" transform="translate(-314.83 -125.26)"/><path class="cls-28" d="M620.53,249.69s-10.87,3.5-12.86,5.49S600,277.65,600,277.65l-8.59-8.6-2.67,6.24s10.06,15,13.22,15.43,10.28-18.94,10.28-18.94.65,10.6,1.87,15.9a33.09,33.09,0,0,1,.71,11c9.72,1.77,18,1.41,23.49-.35L641,277.9s3.7.43,4.87-.86-4.21-22.44-5.37-24.08-10.92-3.31-10.92-3.31Z" transform="translate(-314.83 -125.26)"/><path class="cls-27" d="M631.12,263.73c-.06-.42-.74-.31-.73.1A132.88,132.88,0,0,1,629,289.89c-.09.58.78.85.91.25A75.91,75.91,0,0,0,631.12,263.73Z" transform="translate(-314.83 -125.26)"/><path class="cls-27" d="M641.1,270.24c-.06-.29-.51-.22-.51.07a87,87,0,0,1-1.7,15.09A53.33,53.33,0,0,0,637.52,299c0,.64,1,.65,1,0-.22-5.29.86-10.4,1.82-15.58C641.14,279.08,642,274.59,641.1,270.24Z" transform="translate(-314.83 -125.26)"/><path class="cls-27" d="M613.23,270.08c-2.92,1.86-4,5.49-5.13,8.58-1.52,4.18-3,8.29-6.32,11.42-.49.47.24,1.19.74.74,6.08-5.47,5.79-14.41,11-20.39C613.65,270.25,613.45,269.94,613.23,270.08Z" transform="translate(-314.83 -125.26)"/><path class="cls-25" d="M638.42,296.8s-14.73,1.87-23.61-.93c.23,0,0,2.8,0,2.8a44.63,44.63,0,0,0,24.31.94C639,299.57,638.42,296.8,638.42,296.8Z" transform="translate(-314.83 -125.26)"/><path class="cls-29" d="M486,356.67s-1.22,2.67-3.33,3.11-7.65,1.66-8.53,2.44-.89,2.77-.89,2.77h17.59s0-5.33-1-8.1C490.21,356.9,486,356.67,486,356.67Z" transform="translate(-314.83 -125.26)"/><path class="cls-29" d="M519.92,356.67s-1.22,2.67-3.33,3.11-7.65,1.66-8.53,2.44-.89,2.77-.89,2.77h17.59s0-5.33-1-8.1C524.13,356.9,519.92,356.67,519.92,356.67Z" transform="translate(-314.83 -125.26)"/><path class="cls-30" d="M517.76,183.78s-4.9-1.25-5.2-.47,7.58,3.1,7.58,3.1l7.09,19.65-2.66,6.29,4.88,5.32s5.32-7.2,5.76-9.31-12.63-23.28-12.63-23.28-2.6-8.25-3-8.64-5.08-.15-6.14-.13,3.09,4.22,3.09,4.22Z" transform="translate(-314.83 -125.26)"/><path class="cls-30" d="M498.7,198.32a18,18,0,0,0-2.84,6.77,22.72,22.72,0,0,0,.17,6.82l4.28-.14v4h8.52a45.36,45.36,0,0,1,.5-4.7c.33-1.67,2.66-4.82,2.66-4.82l-3.82-10.81-5.49-.5Z" transform="translate(-314.83 -125.26)"/><path class="cls-13" d="M500.85,203.43s1.5-3.49,3.33-2.16-.5,4.15-.5,4.15,1.16,4.83,3.16,5.49l2,.67s5.16-4.83,6-6.16-1.33-9-2.83-10.64-8-1.49-8.48-2.33-2.16-2.32-3.82-1.66-1.33,6.15-1.33,6.15,2.05,1.77,2.19,3.05a6.32,6.32,0,0,1-.82,3Z" transform="translate(-314.83 -125.26)"/><path class="cls-13" d="M492.8,216s8.49-1.24,13.37-1.35,12.64,2.44,12.64,2.44l5.65-6.05,7.19,6.76s-6.12,9-8.1,11.15-3.41,12-3.85,15-1.56,20.51-1.56,20.51-5.21,6.21-26.6-.55c-.22-.23.89-12.86.78-16s-2.89-13.63-3.44-16.18-9.39-7.65-9.39-7.65-1.09-6.21,3-9.2C483,215.23,492.8,216,492.8,216Z" transform="translate(-314.83 -125.26)"/><path class="cls-30" d="M473,190.63s-3.22,3-3.44,4.21S474,210,474,210l8.45,5-3,9.2s-9.23-6.43-10.56-8.31-3.66-20.73-3.66-20.73-3-3.77-3.22-4.77-.91-4.26-.4-4.9,4-4.19,4.45-3.13,2.35,8.73,2.35,8.73S472.25,189.3,473,190.63Z" transform="translate(-314.83 -125.26)"/><path class="cls-8" d="M491.54,263.9l-4.82,45.44-2.5,48.22,8.32.33s5.15-32,5.24-36.86-.09-10.69-.09-10.69L503,286.07h3l6.15,31.59,6.32,39.24,6.65.33s1-24.44,0-29.43-2.5-9.81-2.5-9.81l-3-32.76s2.66-11.64-1.5-20.78C517.31,262.79,491.54,263.9,491.54,263.9Z" transform="translate(-314.83 -125.26)"/><polygon class="cls-19" points="125.91 86.93 120.51 86.93 120.51 81.53 117.14 81.53 117.14 86.93 111.73 86.93 111.73 90.3 117.14 90.3 117.14 95.71 120.51 95.71 120.51 90.3 125.91 90.3 125.91 86.93"/><path class="cls-2" d="M390.45,253.89a8.45,8.45,0,1,1,8.45-8.44A8.45,8.45,0,0,1,390.45,253.89Zm0-12.48a4,4,0,1,0,4,4A4,4,0,0,0,390.45,241.41Z" transform="translate(-314.83 -125.26)"/><polygon class="cls-2" points="335.41 51.02 330.01 51.02 330.01 45.61 326.64 45.61 326.64 51.02 321.24 51.02 321.24 54.39 326.64 54.39 326.64 59.79 330.01 59.79 330.01 54.39 335.41 54.39 335.41 51.02"/><path class="cls-3" d="M623.24,139.4a3.34,3.34,0,1,1-3.34-3.34A3.34,3.34,0,0,1,623.24,139.4Z" transform="translate(-314.83 -125.26)"/><path class="cls-15" d="M558.05,198a8.45,8.45,0,1,1,8.45-8.45A8.46,8.46,0,0,1,558.05,198Zm0-12.49a4,4,0,1,0,4,4A4,4,0,0,0,558.05,185.54Z" transform="translate(-314.83 -125.26)"/><path class="cls-15" d="M602.94,142.16a8.45,8.45,0,1,1,8.45-8.45A8.46,8.46,0,0,1,602.94,142.16Zm0-12.49a4,4,0,1,0,4,4A4,4,0,0,0,602.94,129.67Z" transform="translate(-314.83 -125.26)"/></svg>